<svg width="209" height="25" viewBox="0 0 209 25" fill="none" xmlns="http://www.w3.org/2000/svg">
<path fill-rule="evenodd" clip-rule="evenodd" d="M40.0788 3.41896H45.926C47.6828 3.41896 49.0484 3.79789 49.9831 4.54634C50.9181 5.29511 51.3243 6.31817 51.3243 7.77248C51.3331 8.38444 51.2242 8.99184 51.0036 9.56251C50.7858 10.0874 50.454 10.557 50.0322 10.9372C49.5106 11.3841 48.8941 11.7058 48.2295 11.8784C47.2935 12.1358 46.3254 12.2573 45.3546 12.2388H40.0788V3.41896ZM52.9373 13.0789C54.2785 11.7929 54.9568 10.024 54.9568 7.78809C54.9688 6.76048 54.7881 5.73969 54.4251 4.77838C54.0666 3.85314 53.5073 3.01825 52.7878 2.33448C51.9737 1.58473 51 1.02933 49.9406 0.709541C48.6735 0.323456 47.354 0.138213 46.03 0.159337H36.5596V24.8805H40.0789V15.4984H44.7255L51.7797 24.8805H56.2125L48.8285 15.1689C50.3644 14.8647 51.7865 14.1416 52.9373 13.0789V13.0789Z" fill="#FFFFFF"/>
<path fill-rule="evenodd" clip-rule="evenodd" d="M74.0231 5.96703C74.8788 5.11524 75.9067 4.45681 77.0383 4.03628C78.3633 3.54393 79.7679 3.30149 81.1809 3.32131C82.6235 3.32001 84.0496 3.6242 85.3664 4.2134C86.7102 4.82242 87.9091 5.71061 88.8828 6.81947L89.341 7.33522L92.1089 5.27058L91.5711 4.65961C90.6585 3.61607 89.5935 2.71683 88.4122 1.99211C87.3128 1.31126 86.1184 0.796485 84.8685 0.464673C83.6641 0.15431 82.425 -0.00200848 81.1809 0.000591414C79.6171 -0.0127331 78.0594 0.199159 76.5557 0.629441C75.2129 1.01098 73.9454 1.61838 72.8073 2.42597C71.7599 3.18351 70.8428 4.10583 70.0914 5.15749C69.34 6.21922 68.7726 7.39957 68.4109 8.64915C68.044 9.94097 67.86 11.278 67.8643 12.6205C67.8516 14.0979 68.0849 15.5675 68.5545 16.9682C68.9812 18.2444 69.64 19.4312 70.4976 20.4693C71.3299 21.4497 72.3114 22.2928 73.4059 22.9678C74.5375 23.659 75.7676 24.1744 77.0536 24.4955C78.4029 24.8355 79.7893 25.0048 81.1809 24.9999C85.3755 24.9999 88.8704 23.4416 91.5682 20.3711L92.1057 19.7601L89.3439 17.7195L88.901 18.2177C86.7808 20.5515 84.2605 21.6912 81.1809 21.6912C79.8725 21.7065 78.571 21.4998 77.3318 21.0802C76.2099 20.6938 75.1726 20.0952 74.2766 19.3172C73.403 18.532 72.7144 17.5626 72.2604 16.4791C71.7518 15.2656 71.4983 13.9607 71.5148 12.6449C71.5038 11.3725 71.7277 10.1093 72.1749 8.91791C72.5831 7.81881 73.2119 6.81395 74.0231 5.96703" fill="#FFFFFF"/>
<path fill-rule="evenodd" clip-rule="evenodd" d="M108.652 0.15918H105.132V24.8803H122.024V21.6207H108.652V0.15918Z" fill="#FFFFFF"/>
<mask id="mask0_0_394" style="mask-type:alpha" maskUnits="userSpaceOnUse" x="0" y="0" width="209" height="25">
<path fill-rule="evenodd" clip-rule="evenodd" d="M0 25H208.23V0H0V25Z" fill="white"/>
</mask>
<g mask="url(#mask0_0_394)">
<path fill-rule="evenodd" clip-rule="evenodd" d="M135.026 24.8779H138.564V0.159668H135.026V24.8779Z" fill="#FFFFFF"/>
<path fill-rule="evenodd" clip-rule="evenodd" d="M172.407 18.923L157.321 0.15918H154.227V24.8803H157.749V6.23286L172.761 24.8803H175.926V0.15918H172.407V18.923Z" fill="#FFFFFF"/>
<path fill-rule="evenodd" clip-rule="evenodd" d="M191.498 10.9316V24.8804H208.23V21.6208H195.017V14.188H206.003V10.9316H191.498Z" fill="#FFFFFF"/>
<path fill-rule="evenodd" clip-rule="evenodd" d="M191.498 3.41636H208.23V0.159668H191.498V3.41636Z" fill="#FFFFFF"/>
<path fill-rule="evenodd" clip-rule="evenodd" d="M6.97459 17.1788L7.41137 16.1186L7.57939 15.7153L7.67721 15.48L11.9787 5.06291L16.3228 15.48L16.4116 15.6913L16.5858 16.1128L17.0196 17.1635C13.7551 16.1027 10.2388 16.1027 6.97459 17.1635V17.1788ZM24.0429 24.8803L13.5429 0.15918H10.4054L0 24.8803H3.7913L5.0438 21.8534C9.36775 19.4442 14.629 19.4374 18.9594 21.8345L20.2301 24.8897L24.0429 24.8803Z" fill="#FFFFFF"/>
</g>
</svg>
